<svg height="512pt" viewBox="-11 0 512 512.001" width="512pt" xmlns="http://www.w3.org/2000/svg"><path d="m.160156 259.546875h489.71875c-3.941406-131.859375-112.0625-237.546875-244.878906-237.546875s-240.933594 105.6875-244.875 237.546875zm0 0" fill="#1d3ba8"/><path d="m245 256.644531c49.09375-43.175781 116.03125-61.804687 174.667969-42.066406 22.9375-111.160156-62.054688-214.578125-174.667969-214.578125-112.601562 0-197.605469 103.40625-174.667969 214.578125 58.59375-19.722656 125.542969-1.140625 174.667969 42.066406zm0 0" fill="#55f3ff"/><path d="m245 0c-112.601562 0-197.605469 103.40625-174.667969 214.578125 32.226563-10.847656 66.976563-10.085937 99.902344-.035156 3.519531-5.714844 4.984375-12.609375 3.863281-19.476563-22.203125-135.972656 70.894532-195.06249975 70.902344-195.066406zm0 0" fill="#06daf7"/><path d="m251.109375 511.921875c132.484375-3.242187 238.890625-111.652344 238.890625-244.921875 0-2.832031-.066406-5.644531-.160156-8.453125-19.410156-19.714844-43.363282-34.941406-70.171875-43.96875-12.867188 62.367187-61.847657 111.15625-121.28125 131.164063 12.191406 59.089843-2.773438 122.84375-47.277344 166.179687zm0 0" fill="#f9ce00"/><path d="m245 249.683594c28.523438 25.085937 48.972656 59.128906 56.9375 97.738281 59.433594-20.007813 104.863281-70.476563 117.730469-132.84375-58.59375-19.722656-125.539063-8.101563-174.667969 35.105469zm0 0" fill="#9dc422"/><path d="m238.878906 511.921875c-44.644531-43.28125-61.214844-106.371094-49.027344-165.453125-59.433593-20.007812-106.652343-69.519531-119.519531-131.890625-26.808593 9.027344-50.761719 24.253906-70.171875 43.96875-.0937498 2.808594-.160156 5.621094-.160156 8.453125 0 133.261719 106.398438 241.671875 238.878906 244.921875zm0 0" fill="#ef4a8a"/><path d="m108.738281 312.125c3.78125-2.800781 6.789063-6.460938 8.785157-10.617188-23.375-23.527343-40.265626-53.359374-47.191407-86.929687-26.808593 9.027344-50.761719 24.253906-70.171875 43.96875-.0937498 2.808594-.160156 5.621094-.160156 8.453125 0 59.210938 21.015625 113.5 55.980469 155.855469-6.605469-58.933594 33-96.09375 52.757812-110.730469zm0 0" fill="#e5387f"/><path d="m188.0625 347.421875c7.96875-38.609375 28.417969-72.652344 56.9375-97.738281-49.09375-43.175782-116.03125-54.84375-174.667969-35.105469 12.867188 62.367187 58.296875 112.835937 117.730469 132.84375zm0 0" fill="#e5387f"/><path d="m70.332031 214.578125c6.972657 33.804687 23.527344 64.097656 46.679688 87.953125 1.632812-3.078125 2.703125-6.457031 3.085937-9.992188 4.0625-37.617187 26.078125-58.792968 41.753906-69.289062 4.601563-3.082031 8.101563-7.371094 10.234376-12.253906-33.457032-8.671875-68.90625-7.476563-101.753907 3.582031zm0 0" fill="#d32976"/><path d="m188.0625 347.421875c-12.191406 59.085937 6.027344 121.296875 50.800781 164.5 2.039063.050781 4.085938.078125 6.136719.078125s4.097656-.027344 6.140625-.078125c44.769531-43.203125 62.988281-105.414063 50.796875-164.5-35.679688 12.011719-76.003906 12.75-113.875 0zm0 0" fill="#f4b500"/><path d="m245 249.683594c-30.25 24.605468-50.363281 59.027344-56.9375 97.738281 36.9375 13.40625 76.96875 13.839844 113.875 0-6.449219-40.835937-28.207031-74.679687-56.9375-97.738281zm0 0" fill="#284cb2"/></svg>